<mxfile host="app.diagrams.net" agent="Mozilla/5.0 (Windows NT 10.0; Win64; x64) AppleWebKit/537.36 (KHTML, like Gecko) Chrome/127.0.0.0 Safari/537.36" version="24.7.7">
  <diagram id="C5RBs43oDa-KdzZeNtuy" name="Page-1">
    <mxGraphModel dx="1247" dy="711" grid="1" gridSize="10" guides="1" tooltips="1" connect="1" arrows="1" fold="1" page="0" pageScale="1" pageWidth="827" pageHeight="1169" background="none" math="0" shadow="0">
      <root>
        <mxCell id="WIyWlLk6GJQsqaUBKTNV-0" />
        <mxCell id="WIyWlLk6GJQsqaUBKTNV-1" parent="WIyWlLk6GJQsqaUBKTNV-0" />
        <mxCell id="IAOl3qxbVQm09XbD3cfc-2" value="ゲーム終了？" style="rounded=0;whiteSpace=wrap;html=1;container=0;" vertex="1" parent="WIyWlLk6GJQsqaUBKTNV-1">
          <mxGeometry x="320" y="40" width="190" height="70" as="geometry" />
        </mxCell>
        <mxCell id="IAOl3qxbVQm09XbD3cfc-3" value="" style="endArrow=classic;html=1;rounded=0;" edge="1" parent="WIyWlLk6GJQsqaUBKTNV-1" target="IAOl3qxbVQm09XbD3cfc-6">
          <mxGeometry relative="1" as="geometry">
            <mxPoint x="410" y="110" as="sourcePoint" />
            <mxPoint x="370" y="370" as="targetPoint" />
            <Array as="points">
              <mxPoint x="410" y="160" />
              <mxPoint x="180" y="160" />
            </Array>
          </mxGeometry>
        </mxCell>
        <mxCell id="IAOl3qxbVQm09XbD3cfc-4" value="Yes" style="edgeLabel;resizable=0;html=1;;align=center;verticalAlign=middle;container=0;" connectable="0" vertex="1" parent="IAOl3qxbVQm09XbD3cfc-3">
          <mxGeometry relative="1" as="geometry">
            <mxPoint y="-17" as="offset" />
          </mxGeometry>
        </mxCell>
        <mxCell id="IAOl3qxbVQm09XbD3cfc-6" value="情報を出力" style="rounded=0;whiteSpace=wrap;html=1;container=0;" vertex="1" parent="WIyWlLk6GJQsqaUBKTNV-1">
          <mxGeometry x="120" y="200" width="120" height="60" as="geometry" />
        </mxCell>
        <mxCell id="IAOl3qxbVQm09XbD3cfc-7" value="" style="endArrow=classic;html=1;rounded=0;exitX=0.529;exitY=0.993;exitDx=0;exitDy=0;exitPerimeter=0;" edge="1" parent="WIyWlLk6GJQsqaUBKTNV-1" source="IAOl3qxbVQm09XbD3cfc-2" target="IAOl3qxbVQm09XbD3cfc-10">
          <mxGeometry relative="1" as="geometry">
            <mxPoint x="210" y="370" as="sourcePoint" />
            <mxPoint x="370" y="370" as="targetPoint" />
            <Array as="points">
              <mxPoint x="420" y="160" />
              <mxPoint x="660" y="160" />
            </Array>
          </mxGeometry>
        </mxCell>
        <mxCell id="IAOl3qxbVQm09XbD3cfc-8" value="No" style="edgeLabel;resizable=0;html=1;;align=center;verticalAlign=middle;container=0;" connectable="0" vertex="1" parent="IAOl3qxbVQm09XbD3cfc-7">
          <mxGeometry relative="1" as="geometry">
            <mxPoint y="-20" as="offset" />
          </mxGeometry>
        </mxCell>
        <mxCell id="IAOl3qxbVQm09XbD3cfc-10" value="入力された&lt;br&gt;文字は正しい？" style="rounded=0;whiteSpace=wrap;html=1;container=0;" vertex="1" parent="WIyWlLk6GJQsqaUBKTNV-1">
          <mxGeometry x="600" y="200" width="120" height="60" as="geometry" />
        </mxCell>
        <mxCell id="IAOl3qxbVQm09XbD3cfc-11" value="" style="endArrow=classic;html=1;rounded=0;exitX=0;exitY=0.5;exitDx=0;exitDy=0;" edge="1" parent="WIyWlLk6GJQsqaUBKTNV-1" source="IAOl3qxbVQm09XbD3cfc-10">
          <mxGeometry relative="1" as="geometry">
            <mxPoint x="240" y="370" as="sourcePoint" />
            <mxPoint x="420" y="280" as="targetPoint" />
            <Array as="points">
              <mxPoint x="420" y="230" />
            </Array>
          </mxGeometry>
        </mxCell>
        <mxCell id="IAOl3qxbVQm09XbD3cfc-12" value="Yes" style="edgeLabel;resizable=0;html=1;;align=center;verticalAlign=middle;container=0;" connectable="0" vertex="1" parent="IAOl3qxbVQm09XbD3cfc-11">
          <mxGeometry relative="1" as="geometry" />
        </mxCell>
        <mxCell id="IAOl3qxbVQm09XbD3cfc-18" value="" style="endArrow=classic;html=1;rounded=0;exitX=0.5;exitY=1;exitDx=0;exitDy=0;" edge="1" parent="WIyWlLk6GJQsqaUBKTNV-1" source="IAOl3qxbVQm09XbD3cfc-10" target="IAOl3qxbVQm09XbD3cfc-20">
          <mxGeometry relative="1" as="geometry">
            <mxPoint x="480" y="320" as="sourcePoint" />
            <mxPoint x="890" y="330" as="targetPoint" />
            <Array as="points">
              <mxPoint x="660" y="330" />
              <mxPoint x="770" y="330" />
            </Array>
          </mxGeometry>
        </mxCell>
        <mxCell id="IAOl3qxbVQm09XbD3cfc-19" value="No" style="edgeLabel;resizable=0;html=1;;align=center;verticalAlign=middle;container=0;" connectable="0" vertex="1" parent="IAOl3qxbVQm09XbD3cfc-18">
          <mxGeometry relative="1" as="geometry" />
        </mxCell>
        <mxCell id="IAOl3qxbVQm09XbD3cfc-20" value="情報の出力&lt;br&gt;missCountに+1" style="rounded=0;whiteSpace=wrap;html=1;container=0;" vertex="1" parent="WIyWlLk6GJQsqaUBKTNV-1">
          <mxGeometry x="830" y="300" width="120" height="60" as="geometry" />
        </mxCell>
        <mxCell id="IAOl3qxbVQm09XbD3cfc-21" value="" style="endArrow=classic;html=1;rounded=0;exitX=0.5;exitY=0;exitDx=0;exitDy=0;entryX=1;entryY=0.54;entryDx=0;entryDy=0;entryPerimeter=0;" edge="1" parent="WIyWlLk6GJQsqaUBKTNV-1" source="IAOl3qxbVQm09XbD3cfc-20" target="IAOl3qxbVQm09XbD3cfc-10">
          <mxGeometry relative="1" as="geometry">
            <mxPoint x="690" y="270" as="sourcePoint" />
            <mxPoint x="730" y="230" as="targetPoint" />
            <Array as="points">
              <mxPoint x="890" y="230" />
            </Array>
          </mxGeometry>
        </mxCell>
        <mxCell id="IAOl3qxbVQm09XbD3cfc-23" value="counterに+1&lt;br&gt;successCountに+1" style="rounded=0;whiteSpace=wrap;html=1;container=0;" vertex="1" parent="WIyWlLk6GJQsqaUBKTNV-1">
          <mxGeometry x="360" y="280" width="120" height="60" as="geometry" />
        </mxCell>
        <mxCell id="IAOl3qxbVQm09XbD3cfc-24" value="現在の問題番号がすべての問題数を超えた？" style="rounded=0;whiteSpace=wrap;html=1;container=0;" vertex="1" parent="WIyWlLk6GJQsqaUBKTNV-1">
          <mxGeometry x="360" y="400" width="120" height="60" as="geometry" />
        </mxCell>
        <mxCell id="IAOl3qxbVQm09XbD3cfc-25" value="" style="endArrow=classic;html=1;rounded=0;exitX=0.5;exitY=1;exitDx=0;exitDy=0;entryX=0.5;entryY=0;entryDx=0;entryDy=0;" edge="1" parent="WIyWlLk6GJQsqaUBKTNV-1" source="IAOl3qxbVQm09XbD3cfc-23" target="IAOl3qxbVQm09XbD3cfc-24">
          <mxGeometry width="50" height="50" relative="1" as="geometry">
            <mxPoint x="510" y="470" as="sourcePoint" />
            <mxPoint x="560" y="420" as="targetPoint" />
          </mxGeometry>
        </mxCell>
        <mxCell id="IAOl3qxbVQm09XbD3cfc-26" value="" style="endArrow=classic;html=1;rounded=0;exitX=0.5;exitY=1;exitDx=0;exitDy=0;" edge="1" parent="WIyWlLk6GJQsqaUBKTNV-1" source="IAOl3qxbVQm09XbD3cfc-24">
          <mxGeometry relative="1" as="geometry">
            <mxPoint x="490" y="440" as="sourcePoint" />
            <mxPoint x="420" y="520" as="targetPoint" />
          </mxGeometry>
        </mxCell>
        <mxCell id="IAOl3qxbVQm09XbD3cfc-27" value="No" style="edgeLabel;resizable=0;html=1;;align=center;verticalAlign=middle;container=0;" connectable="0" vertex="1" parent="IAOl3qxbVQm09XbD3cfc-26">
          <mxGeometry relative="1" as="geometry" />
        </mxCell>
        <mxCell id="IAOl3qxbVQm09XbD3cfc-30" value="問題を更新" style="rounded=0;whiteSpace=wrap;html=1;container=0;" vertex="1" parent="WIyWlLk6GJQsqaUBKTNV-1">
          <mxGeometry x="360" y="520" width="120" height="60" as="geometry" />
        </mxCell>
        <mxCell id="IAOl3qxbVQm09XbD3cfc-35" value="" style="endArrow=classic;html=1;rounded=0;exitX=0;exitY=0.5;exitDx=0;exitDy=0;" edge="1" parent="WIyWlLk6GJQsqaUBKTNV-1" source="IAOl3qxbVQm09XbD3cfc-24">
          <mxGeometry relative="1" as="geometry">
            <mxPoint x="260" y="470" as="sourcePoint" />
            <mxPoint x="320" y="80" as="targetPoint" />
            <Array as="points">
              <mxPoint x="240" y="430" />
              <mxPoint x="40" y="430" />
              <mxPoint x="40" y="170" />
              <mxPoint x="40" y="80" />
            </Array>
          </mxGeometry>
        </mxCell>
        <mxCell id="IAOl3qxbVQm09XbD3cfc-36" value="Yes" style="edgeLabel;resizable=0;html=1;;align=center;verticalAlign=middle;container=0;" connectable="0" vertex="1" parent="IAOl3qxbVQm09XbD3cfc-35">
          <mxGeometry relative="1" as="geometry" />
        </mxCell>
        <mxCell id="IAOl3qxbVQm09XbD3cfc-39" value="" style="endArrow=classic;html=1;rounded=0;exitX=0.5;exitY=1;exitDx=0;exitDy=0;entryX=0.25;entryY=1;entryDx=0;entryDy=0;" edge="1" parent="WIyWlLk6GJQsqaUBKTNV-1" source="IAOl3qxbVQm09XbD3cfc-30" target="IAOl3qxbVQm09XbD3cfc-10">
          <mxGeometry width="50" height="50" relative="1" as="geometry">
            <mxPoint x="290" y="490" as="sourcePoint" />
            <mxPoint x="730" y="670" as="targetPoint" />
            <Array as="points">
              <mxPoint x="420" y="670" />
              <mxPoint x="630" y="670" />
            </Array>
          </mxGeometry>
        </mxCell>
        <mxCell id="IAOl3qxbVQm09XbD3cfc-41" value="&lt;h2 style=&quot;&quot;&gt;定義の種類&lt;/h2&gt;&lt;div&gt;&lt;ul&gt;&lt;li&gt;counter&lt;/li&gt;&lt;li&gt;qscounter&lt;/li&gt;&lt;li&gt;missCounter&lt;/li&gt;&lt;li&gt;successCounter&lt;/li&gt;&lt;li&gt;startTIme&lt;/li&gt;&lt;li&gt;endTime&lt;/li&gt;&lt;li&gt;ques&lt;/li&gt;&lt;li&gt;startButton&lt;/li&gt;&lt;li&gt;vodaiElement&lt;/li&gt;&lt;li&gt;inputElement&lt;/li&gt;&lt;li&gt;missElement&lt;/li&gt;&lt;li&gt;MissMasage&lt;/li&gt;&lt;li&gt;gameTime&lt;/li&gt;&lt;/ul&gt;&lt;/div&gt;" style="rounded=0;whiteSpace=wrap;html=1;align=left;container=0;" vertex="1" parent="WIyWlLk6GJQsqaUBKTNV-1">
          <mxGeometry x="110" y="720" width="140" height="420" as="geometry" />
        </mxCell>
        <mxCell id="IAOl3qxbVQm09XbD3cfc-42" value="&lt;h2&gt;定義の中身&lt;/h2&gt;&lt;h4&gt;&lt;span style=&quot;text-align: justify;&quot;&gt;&lt;span style=&quot;white-space: pre;&quot;&gt;&#x9;&lt;/span&gt;初期値に0を代入&lt;/span&gt;&lt;/h4&gt;&lt;div style=&quot;text-align: justify;&quot;&gt;&lt;ul&gt;&lt;li&gt;counter = 文字数&lt;/li&gt;&lt;li&gt;qscounter = 問題数&lt;/li&gt;&lt;li&gt;missCounter = ミスした数&lt;/li&gt;&lt;/ul&gt;&lt;/div&gt;&lt;h4 style=&quot;text-align: justify;&quot;&gt;&lt;span style=&quot;white-space: pre;&quot;&gt;&lt;span style=&quot;white-space: pre;&quot;&gt;&#x9;&lt;/span&gt;経過時間を表示させるための変数&lt;/span&gt;&lt;/h4&gt;&lt;div style=&quot;text-align: justify;&quot;&gt;&lt;/div&gt;&lt;div style=&quot;text-align: justify;&quot;&gt;&lt;ul&gt;&lt;li&gt;startTIme&lt;/li&gt;&lt;li&gt;endTime&lt;/li&gt;&lt;/ul&gt;&lt;/div&gt;&lt;h4 style=&quot;text-align: justify;&quot;&gt;&lt;span style=&quot;white-space: pre;&quot;&gt;&#x9;&lt;/span&gt;&lt;span style=&quot;background-color: initial; white-space: pre;&quot;&gt;問題として出す文字を配列にして代入&lt;/span&gt;&lt;/h4&gt;&lt;div style=&quot;text-align: justify;&quot;&gt;&lt;ul&gt;&lt;li&gt;&lt;span style=&quot;background-color: initial; white-space: pre;&quot;&gt;ques&lt;/span&gt;&lt;/li&gt;&lt;/ul&gt;&lt;/div&gt;&lt;h4 style=&quot;text-align: justify;&quot;&gt;&lt;span style=&quot;white-space: pre;&quot;&gt;&#x9;&lt;/span&gt;HTMLに対応するIDを定義済み&lt;br&gt;&lt;span style=&quot;white-space: pre;&quot;&gt;&#x9;&lt;/span&gt;定義された各IDの要素を取得&lt;/h4&gt;&lt;div style=&quot;text-align: justify;&quot;&gt;&lt;ul&gt;&lt;li&gt;startButton&lt;/li&gt;&lt;li&gt;vodaiElement&lt;/li&gt;&lt;li&gt;inputElement&lt;/li&gt;&lt;li&gt;missElement&lt;/li&gt;&lt;li&gt;MissMasage&lt;/li&gt;&lt;li&gt;gameTime&lt;/li&gt;&lt;/ul&gt;&lt;/div&gt;" style="rounded=0;whiteSpace=wrap;html=1;align=left;container=0;" vertex="1" parent="WIyWlLk6GJQsqaUBKTNV-1">
          <mxGeometry x="250" y="720" width="270" height="420" as="geometry" />
        </mxCell>
      </root>
    </mxGraphModel>
  </diagram>
</mxfile>
